<mxfile host="app.diagrams.net" modified="2021-12-17T08:09:52.920Z" agent="5.0 (Windows)" etag="_WdEpYzlQekauYU7HMVj" version="15.9.6" type="github">
  <diagram id="NljNOyvBRipqK9SD4lzw" name="Page-1">
    <mxGraphModel dx="1409" dy="752" grid="1" gridSize="6" guides="1" tooltips="1" connect="1" arrows="1" fold="1" page="1" pageScale="1" pageWidth="850" pageHeight="1100" math="0" shadow="0">
      <root>
        <mxCell id="0" />
        <mxCell id="1" parent="0" />
        <mxCell id="ijzAaDseXpAFy0dOKuOl-1" value="" style="sketch=0;points=[[0,0,0],[0.25,0,0],[0.5,0,0],[0.75,0,0],[1,0,0],[0,1,0],[0.25,1,0],[0.5,1,0],[0.75,1,0],[1,1,0],[0,0.25,0],[0,0.5,0],[0,0.75,0],[1,0.25,0],[1,0.5,0],[1,0.75,0]];outlineConnect=0;fontColor=#232F3E;gradientColor=#945DF2;gradientDirection=north;fillColor=#5A30B5;strokeColor=#ffffff;dashed=0;verticalLabelPosition=bottom;verticalAlign=top;align=center;html=1;fontSize=12;fontStyle=0;aspect=fixed;shape=mxgraph.aws4.resourceIcon;resIcon=mxgraph.aws4.vpc;shadow=1;" vertex="1" parent="1">
          <mxGeometry x="150" y="90" width="70" height="70" as="geometry" />
        </mxCell>
        <mxCell id="ijzAaDseXpAFy0dOKuOl-2" value="" style="whiteSpace=wrap;html=1;aspect=fixed;shadow=1;fillColor=none;" vertex="1" parent="1">
          <mxGeometry x="144" y="84" width="342" height="342" as="geometry" />
        </mxCell>
        <mxCell id="ijzAaDseXpAFy0dOKuOl-3" value="" style="sketch=0;points=[[0,0,0],[0.25,0,0],[0.5,0,0],[0.75,0,0],[1,0,0],[0,1,0],[0.25,1,0],[0.5,1,0],[0.75,1,0],[1,1,0],[0,0.25,0],[0,0.5,0],[0,0.75,0],[1,0.25,0],[1,0.5,0],[1,0.75,0]];outlineConnect=0;fontColor=#232F3E;gradientColor=#F78E04;gradientDirection=north;fillColor=#D05C17;strokeColor=#ffffff;dashed=0;verticalLabelPosition=bottom;verticalAlign=top;align=center;html=1;fontSize=12;fontStyle=0;aspect=fixed;shape=mxgraph.aws4.resourceIcon;resIcon=mxgraph.aws4.ec2;shadow=1;" vertex="1" parent="1">
          <mxGeometry x="282" y="198" width="78" height="78" as="geometry" />
        </mxCell>
        <mxCell id="ijzAaDseXpAFy0dOKuOl-4" style="edgeStyle=none;rounded=0;orthogonalLoop=1;jettySize=auto;html=1;exitX=1;exitY=1;exitDx=0;exitDy=0;" edge="1" parent="1" source="ijzAaDseXpAFy0dOKuOl-2" target="ijzAaDseXpAFy0dOKuOl-2">
          <mxGeometry relative="1" as="geometry" />
        </mxCell>
      </root>
    </mxGraphModel>
  </diagram>
</mxfile>
